<svg width="20" height="30" viewBox="0 0 20 30" fill="none" xmlns="http://www.w3.org/2000/svg">
<path d="M10.2066 1.23884C10.0243 1.96759 9.57455 2.62346 8.11598 4.31172C4.6519 8.34411 3.54582 10.5061 3.64306 13.0445C3.70383 14.8421 4.4088 15.9959 5.87952 16.7125C6.43864 16.9919 6.65742 17.0283 7.37455 16.9797C7.84858 16.9554 8.26184 16.8947 8.29831 16.8583C8.34692 16.8097 8.23753 16.5911 8.06737 16.3724C7.8972 16.1417 7.60549 15.6316 7.42317 15.2429C7.13145 14.5992 7.08284 14.3684 7.08284 13.2996C7.08284 11.8056 7.30162 11.0526 8.1646 9.63156C8.90604 8.41698 9.95134 7.23884 11.1547 6.25504L12.0298 5.53844L12.3337 5.89067C12.8199 6.48581 13.7679 8.13763 14.1447 9.04856C14.4486 9.8016 14.485 10.0445 14.4972 11.2348C14.4972 12.5587 14.485 12.6073 14.0232 13.5425C13.6221 14.3805 13.3425 14.7206 12.0541 15.9838C11.021 17.004 10.4983 17.6235 10.3524 17.9757C10.1701 18.4129 10.1337 18.4615 10.0243 18.2672C9.9635 18.1579 9.87842 17.4534 9.85411 16.7125C9.76902 14.7085 10.1701 13.2388 11.0696 12.3036C11.495 11.8542 11.4221 11.5992 10.9845 12.0121C10.5955 12.3765 10.0607 13.3724 9.86626 14.1376C9.50162 15.5101 9.52593 17.2955 9.95134 18.8623C10.085 19.3603 10.3038 19.3603 10.3038 18.8623C10.3038 18.2429 10.79 17.5384 12.1513 16.2024C13.5127 14.8664 14.1569 13.9797 14.5337 12.9716C14.8132 12.2307 14.8011 10.3482 14.5094 9.47366C14.0232 8.02832 12.4187 5.35625 12.042 5.34411C11.8475 5.34411 10.4497 6.55868 9.50162 7.54249C8.72372 8.35625 7.95797 9.42508 7.5204 10.2996C7.16792 10.9919 6.77897 12.5344 6.77897 13.2146C6.77897 14.1984 7.32593 15.838 7.84858 16.4332C8.10383 16.7247 7.95797 16.8218 7.21654 16.8218C5.92814 16.8097 4.48173 15.7287 4.05632 14.4777C3.72814 13.5425 3.69167 12.753 3.92261 11.6478C4.29941 9.74087 5.39333 7.87042 7.66626 5.18621C9.35576 3.20646 9.91488 2.46556 10.2187 1.82184C10.3646 1.5182 10.4983 1.25099 10.5105 1.2267C10.5226 1.20241 10.8265 1.45747 11.179 1.7854C11.5315 2.12548 12.3215 2.82994 12.9171 3.36435C13.5248 3.91091 14.3513 4.70038 14.7524 5.12548C17.7303 8.19836 18.3745 11.2591 16.6972 14.2469C16.2839 14.9878 16.2475 15.0243 15.5547 15.2186C14.0353 15.6316 12.5038 17.0648 12.8563 17.7328C13.2453 18.4494 14.3149 17.7328 16.1745 15.498C16.442 15.17 16.5392 15.1336 17.2442 15.1336C18.0707 15.1457 18.569 15.3279 19.0187 15.8137C19.9547 16.8218 19.6022 18.7895 18.253 20.0405C15.8585 22.2753 11.5436 22.7975 5.98891 21.5465C4.5425 21.2307 2.92593 20.7328 2.37897 20.4534C2.06295 20.2834 2.03864 20.2226 2.03864 19.5182C2.03864 18.6558 1.77123 17.5992 1.47952 17.3684C1.19996 17.1255 0.567918 17.1741 0.385598 17.4291C-0.0519714 18.0121 0.385598 19.1781 1.32151 19.9554L1.83201 20.3684L1.85632 23.1498C1.89278 26.1376 1.99002 26.8178 2.47621 27.2672C2.84085 27.6073 4.25079 28.2024 5.63643 28.6032C9.40438 29.6963 14.5701 29.3684 18.253 27.8016C19.3469 27.3401 19.4928 27.1943 19.6508 26.4656C19.8331 25.6639 19.8088 19.6518 19.6386 20.3441C19.5779 20.6113 19.5414 21.5587 19.5779 22.4696C19.6508 24.255 19.5049 26.5749 19.3105 26.9514C19.0309 27.4494 15.8099 28.5303 13.5491 28.8583C11.5679 29.1498 8.29831 29.0405 6.53587 28.6275C4.99223 28.2631 3.19333 27.5587 2.65853 27.1093C2.33035 26.8299 2.25742 26.6599 2.16018 25.9919C2.03864 25.1538 1.99002 20.5263 2.09941 20.5263C2.13587 20.5263 2.29389 20.5992 2.43974 20.6963C2.82869 20.9514 4.93145 21.5587 6.69389 21.9109C11.3127 22.8704 15.2143 22.4696 17.706 20.7814C18.5326 20.2226 18.9458 19.7611 19.3955 18.8988C19.6629 18.3886 19.7237 18.1214 19.7237 17.3563C19.7237 16.5546 19.6873 16.3724 19.3834 15.9231C18.9458 15.2672 18.2652 14.9514 17.3171 14.9392C16.9281 14.9392 16.6243 14.9028 16.6486 14.8421C16.6729 14.7935 16.8795 14.3441 17.1348 13.8461C18.8121 10.3967 17.5845 7.17811 13.0629 3.20645C12.2486 2.48986 11.3005 1.63965 10.9602 1.31172L10.3403 0.70443L10.2066 1.23884ZM15.7248 15.6923C15.3845 16.1781 14.1447 17.3927 13.8044 17.5627C13.3547 17.7935 12.9779 17.7814 12.9779 17.5263C12.9779 17.2591 13.5005 16.6032 14.011 16.2024C14.4243 15.8866 15.7856 15.2793 15.8707 15.3643C15.895 15.3886 15.8342 15.5344 15.7248 15.6923ZM1.44306 17.7328C1.66184 18.0243 1.99002 19.8826 1.85632 20.0283C1.72261 20.1498 0.689465 18.9959 0.507145 18.498C0.324824 18.0121 0.324824 17.9635 0.507145 17.672C0.762393 17.2834 1.13919 17.3077 1.44306 17.7328Z" fill="#5F4536"/>
</svg>
